<svg width="168" height="86" viewBox="0 0 168 86" fill="none" xmlns="http://www.w3.org/2000/svg">
<path d="M81.0422 12.4502C80.9625 13.6781 81.1781 18.4846 83.535 19.1232C85.8918 19.7618 88.2057 15.8906 88.7568 14.7904C89.3079 13.6902 90.5529 10.0292 86.3105 8.8797C82.0682 7.7302 81.1219 11.2223 81.0422 12.4502Z" fill="#F2C94C"/>
<path d="M75.3904 28.3823C75.5957 28.3891 76.0813 49.2256 83.0813 49.2256C90.0813 49.2256 91.2053 28.9121 91.4107 28.919C91.6161 28.9258 98.0209 37.4275 99.5511 37.5765C100.325 37.6519 102.866 36.9513 105.187 36.2406C109.292 40.0204 111.974 39.1642 114.246 37.2274C116.892 34.9729 115.525 30.7153 116.328 30.0305C117.131 29.3458 121.481 29.8999 123.368 28.2918C125.254 26.6838 122.368 19.8474 122.368 19.8474C122.368 19.8474 134.701 8.57499 134.838 8.44548C134.784 8.51149 135.637 9.70344 135.986 9.79078C136.338 9.87857 142.62 4.52444 142.654 4.10885C142.687 3.69326 140.035 2.85437 139.852 2.62272C139.67 2.39106 138.796 0.0369955 138.385 0.000199663C137.973 -0.0365961 132.035 5.02433 132.162 5.30334C132.288 5.58 133.229 6.68546 133.308 6.6507C133.118 6.78361 119.691 16.7062 119.691 16.7062C119.691 16.7062 113.723 12.8842 111.479 14.7963C109.235 16.7085 109.422 20.0355 108.618 20.7202C107.815 21.4049 103.856 20.1311 101.435 22.1945C99.1348 24.1544 97.8278 27.3653 102.292 33.0667L101.133 33.3348C101.133 33.3348 96.607 27.2525 95.2172 25.7743C93.8274 24.2962 90.5891 22.7562 88.3435 22.2719C86.0979 21.7877 80.3401 21.7993 78.6902 21.9485C77.0402 22.0978 73.9252 23.016 72.2136 25.0037C70.5021 26.9915 68.9069 31.6417 67.8595 32.2201C67.6864 32.3157 67.3875 32.3122 67.009 32.2396C69.0652 28.3799 67.8233 26.1597 65.7623 24.4126C63.1108 22.1651 59.1292 24.2005 58.324 23.5179C57.5187 22.8353 57.3646 18.4536 55.4734 16.8506C53.5823 15.2476 47.3004 19.1978 47.3004 19.1978C47.3004 19.1978 34.1878 8.84324 34.0378 8.72845C34.1117 8.7715 35.1506 7.7376 35.1805 7.37842C35.2105 7.01738 28.9138 1.67999 28.4983 1.71425C28.0828 1.74851 27.6823 4.50066 27.4831 4.71828C27.2839 4.9359 25.1014 6.1776 25.1314 6.58947C25.1614 7.00134 31.1132 12.0464 31.3681 11.876C31.6208 11.707 32.5601 10.6 32.5132 10.5283C32.6749 10.6938 44.6317 22.3461 44.6317 22.3461C44.6317 22.3461 41.8216 28.8527 44.0704 30.7589C46.3192 32.6651 49.5726 31.9447 50.3779 32.6273C51.1831 33.3099 50.5641 37.4227 52.9907 39.4796C55.4172 41.5365 59.3983 41.8476 64.7357 35.5509C66.6153 36.6859 68.4881 37.5919 69.1329 37.171C70.5813 36.2256 75.185 28.3754 75.3904 28.3823Z" fill="#F2C94C"/>
<path d="M21.8625 73.8134L22.2755 73.5961C22.3058 73.6668 22.3706 73.7926 22.4699 73.9736C22.5769 74.1547 22.7386 74.3404 22.9549 74.5307C23.1713 74.721 23.4582 74.8887 23.8157 75.034C24.1733 75.1792 24.6294 75.2554 25.184 75.2625C25.8792 75.2714 26.5809 75.089 27.2889 74.7153C27.9967 74.3494 28.6409 73.7756 29.2213 72.9939C29.8017 72.2123 30.2754 71.2222 30.6424 70.0237C31.0173 68.8174 31.2155 67.3824 31.2369 65.7185C31.2444 65.1326 31.1972 64.5499 31.0953 63.9704C31.0013 63.3832 30.8483 62.8226 30.6364 62.2886C30.4323 61.7547 30.177 61.2591 29.8703 60.802C29.5638 60.3371 29.2056 59.934 28.7959 59.5928C28.3862 59.2516 27.9248 58.9839 27.4116 58.7898C26.9063 58.588 26.353 58.4832 25.7514 58.4754C25.2202 58.4686 24.6564 58.5668 24.06 58.7701C23.4637 58.9656 22.9127 59.2789 22.4072 59.7099C21.9095 60.1332 21.4922 60.6826 21.1554 61.358C20.8265 62.0257 20.656 62.8283 20.6439 63.7657C20.6344 64.5078 20.6964 65.1532 20.83 65.7018C20.9714 66.2506 21.1567 66.7256 21.3859 67.1271C21.6231 67.5208 21.8962 67.8485 22.2054 68.1103C22.5225 68.3644 22.8519 68.5679 23.1937 68.7208C23.5355 68.8736 23.8818 68.9835 24.2325 69.0505C24.5834 69.1097 24.9111 69.1413 25.2158 69.1452C25.6454 69.1507 26.0446 69.0934 26.4134 68.9731C26.79 68.8529 27.1199 68.7165 27.4031 68.5639C27.6943 68.4036 27.9345 68.2504 28.1239 68.1044C28.3134 67.9506 28.4437 67.8468 28.5147 67.793L28.8267 68.1369C28.1793 68.6598 27.5219 69.0499 26.8545 69.3069C26.1871 69.5562 25.4551 69.6757 24.6583 69.6654C23.9786 69.6567 23.3198 69.5467 22.6819 69.3353C22.044 69.1162 21.478 68.7807 20.9837 68.329C20.4974 67.8696 20.1064 67.2864 19.8108 66.5794C19.523 65.8725 19.3855 65.023 19.3982 64.0309C19.4059 63.4372 19.4951 62.8758 19.666 62.3467C19.8448 61.8099 20.0816 61.3168 20.3765 60.8675C20.6793 60.4104 21.0322 60.0047 21.4352 59.6505C21.8383 59.2885 22.272 58.9815 22.7362 58.7297C23.2004 58.4778 23.6834 58.2887 24.185 58.1623C24.6868 58.0281 25.1877 57.9643 25.6876 57.9707C26.1016 57.976 26.562 58.0249 27.0687 58.1174C27.5832 58.2021 28.0969 58.3611 28.6095 58.5942C29.1301 58.8197 29.6339 59.1348 30.1209 59.5395C30.6081 59.9364 31.039 60.4459 31.4139 61.068C31.7888 61.6822 32.084 62.4283 32.2992 63.3061C32.5225 64.1763 32.6265 65.2011 32.6113 66.3807C32.5988 67.3494 32.4856 68.2542 32.2717 69.0953C32.0655 69.9365 31.7861 70.7064 31.4333 71.405C31.0884 72.1038 30.678 72.7275 30.2021 73.2761C29.7342 73.817 29.2322 74.2715 28.6962 74.6396C28.1601 75.0156 27.6017 75.2975 27.0211 75.4854C26.4482 75.6811 25.8806 75.7754 25.3181 75.7682C25.0135 75.7643 24.6935 75.7328 24.3583 75.6738C24.0231 75.6148 23.6963 75.5129 23.3778 75.3682C23.0671 75.2236 22.7767 75.0245 22.5065 74.771C22.244 74.5254 22.0293 74.2062 21.8625 73.8134ZM38.972 68.994C39.0931 68.6908 39.2218 68.4034 39.3581 68.1317C39.5023 67.8522 39.6539 67.6081 39.8129 67.3992C39.9718 67.1903 40.1419 67.0245 40.3232 66.9018C40.5124 66.7714 40.7203 66.7076 40.9468 66.7106C41.0562 66.712 41.1809 66.737 41.3209 66.7857C41.4609 66.8344 41.5925 66.9298 41.7157 67.072C41.8467 67.2144 41.9534 67.4189 42.0359 67.6856C42.1184 67.9523 42.1569 68.3044 42.1513 68.7418C42.1484 68.9684 42.1334 69.2182 42.1065 69.4913C42.0795 69.7644 42.0526 70.0336 42.0258 70.299C42.2746 69.7865 42.5184 69.356 42.7573 69.0075C43.0041 68.6512 43.2421 68.3691 43.4713 68.1611C43.7085 67.9454 43.941 67.7921 44.1687 67.7013C44.3966 67.6026 44.6238 67.5548 44.8503 67.5577C44.9519 67.559 45.0687 67.5839 45.2009 67.6325C45.3409 67.6812 45.4688 67.7649 45.5845 67.8836C45.7079 68.0024 45.8074 68.1638 45.8829 68.3679C45.9663 68.5721 46.0059 68.8344 46.0017 69.1547C45.9984 69.4125 45.9756 69.67 45.9332 69.9273C45.8908 70.1846 45.8447 70.434 45.7947 70.6756C45.7447 70.9171 45.6988 71.147 45.6569 71.3653C45.6151 71.5757 45.5932 71.7629 45.5911 71.927C45.586 72.3175 45.6525 72.6192 45.7904 72.8319C45.9284 73.0369 46.1419 73.1412 46.4309 73.1449C46.6653 73.1479 46.889 73.0648 47.1022 72.8957C47.3154 72.7187 47.5136 72.4947 47.6968 72.2236C47.8878 71.9526 48.0596 71.654 48.2123 71.3278C48.3727 71.0017 48.5095 70.6909 48.6227 70.3955C48.7438 70.0923 48.8449 69.828 48.9259 69.6025C49.007 69.3691 49.0638 69.2097 49.0961 69.1241L49.5516 69.2472C49.4387 69.5192 49.3177 69.8224 49.1883 70.1567C49.0669 70.4832 48.9299 70.8135 48.7771 71.1475C48.6244 71.4815 48.46 71.8076 48.284 72.1257C48.1082 72.4359 47.9132 72.7108 47.6992 72.9502C47.4851 73.1897 47.2522 73.382 47.0003 73.5272C46.7562 73.6726 46.4858 73.7433 46.1889 73.7395C45.9389 73.7363 45.7208 73.6866 45.5345 73.5904C45.3561 73.4866 45.2055 73.3518 45.0826 73.1861C44.9598 73.0205 44.8685 72.824 44.809 72.5966C44.7494 72.3693 44.7212 72.1267 44.7246 71.8689C44.7283 71.5799 44.7555 71.2833 44.8063 70.9793C44.8649 70.6753 44.9234 70.3831 44.9817 70.1026C45.0478 69.8221 45.1058 69.5651 45.1557 69.3313C45.2134 69.0898 45.2434 68.891 45.2454 68.7347C45.2485 68.4926 45.2039 68.3123 45.1117 68.1939C45.0195 68.0677 44.8915 68.0036 44.7274 68.0015C44.5009 67.9986 44.2772 68.0777 44.0563 68.239C43.8433 68.4003 43.6335 68.6164 43.4268 68.8872C43.228 69.1581 43.0365 69.4681 42.8523 69.8174C42.6681 70.1666 42.4955 70.5277 42.3345 70.9006C42.1813 71.2659 42.036 71.6312 41.8985 71.9967C41.7687 72.3622 41.6551 72.6928 41.5576 72.9885C41.46 73.2841 41.3747 73.5369 41.3017 73.747C41.2366 73.9493 41.192 74.0776 41.1678 74.132L40.4897 74.0061C40.5894 73.5464 40.6815 73.0631 40.7662 72.5564C40.8509 72.0418 40.9238 71.5388 40.9848 71.0473C41.0537 70.5482 41.1067 70.0723 41.1438 69.6196C41.1887 69.167 41.2134 68.7649 41.2179 68.4134C41.224 67.9369 41.1969 67.6162 41.1365 67.4513C41.0762 67.2787 40.9641 67.1913 40.8 67.1892C40.6594 67.1874 40.5259 67.2404 40.3995 67.3481C40.2732 67.4481 40.1542 67.5872 40.0425 67.7654C39.9388 67.936 39.8346 68.1378 39.7301 68.3708C39.6255 68.6039 39.5246 68.8526 39.4275 69.117L38.972 68.994ZM54.7509 68.3061C54.662 68.5316 54.5732 68.7531 54.4845 68.9707C54.4036 69.1885 54.3109 69.406 54.2065 69.6235C54.11 69.841 53.994 70.0544 53.8584 70.2636C53.7229 70.4728 53.56 70.6856 53.3697 70.9019L53.2772 70.8069C53.4866 70.3174 53.6728 69.8158 53.8356 69.3023C53.9985 68.7887 54.1622 68.2126 54.3267 67.5741C54.289 67.4642 54.2551 67.37 54.2248 67.2915C54.1946 67.213 54.1681 67.1423 54.1455 67.0795C54.123 67.0089 54.1043 66.9383 54.0896 66.8678C54.075 66.7895 54.0683 66.7035 54.0695 66.6097C54.0711 66.4848 54.0885 66.3482 54.1216 66.2002C54.1627 66.0445 54.2154 65.9006 54.2796 65.7686C54.3516 65.6367 54.4311 65.5284 54.5181 65.4435C54.6053 65.3509 54.6957 65.3052 54.7894 65.3064C54.8988 65.3078 54.9844 65.3362 55.0462 65.3917C55.1159 65.4395 55.1698 65.5027 55.2078 65.5813C55.2459 65.6599 55.2722 65.7423 55.2867 65.8285C55.3012 65.9146 55.308 65.9967 55.307 66.0748C55.3054 66.192 55.2881 66.3285 55.2548 66.4843C55.2295 66.6325 55.1963 66.7805 55.1553 66.9284C55.1223 67.0686 55.0894 67.1932 55.0568 67.3022C55.0319 67.4112 55.0193 67.4814 55.0189 67.5127C55.0787 67.7244 55.1814 67.9406 55.327 68.1612C55.4804 68.3819 55.6533 68.6068 55.8457 68.8359C56.0381 69.0649 56.2381 69.3058 56.4458 69.5585C56.6615 69.8035 56.8534 70.0638 57.0218 70.3394C57.198 70.6151 57.3387 70.9099 57.4441 71.2238C57.5573 71.53 57.6117 71.8549 57.6073 72.1987C57.601 72.6908 57.5216 73.0883 57.3693 73.391C57.2248 73.6939 57.0304 73.9258 56.7861 74.0867C57.1394 73.9506 57.4707 73.7048 57.78 73.3494C58.0971 72.9941 58.3875 72.5876 58.6513 72.13C58.9229 71.6648 59.1713 71.1796 59.3966 70.6747C59.6297 70.1698 59.8349 69.6998 60.0124 69.2645L60.4679 69.3876C60.1936 70.0638 59.9038 70.7242 59.5986 71.3687C59.2934 72.0133 58.9501 72.5871 58.5686 73.09C58.1871 73.593 57.7561 73.9976 57.2755 74.3039C56.8028 74.6104 56.2618 74.7597 55.6524 74.7519C55.4884 74.7498 55.3206 74.7359 55.149 74.7102C54.9854 74.6769 54.8219 74.6318 54.6585 74.575C54.5031 74.5105 54.3557 74.4266 54.2164 74.3232C54.0771 74.2198 53.9576 74.0972 53.8579 73.9553L54.2479 73.7025C54.3168 73.8127 54.4248 73.9157 54.572 74.0113C54.7193 74.107 54.914 74.1564 55.1561 74.1595C55.3905 74.1625 55.5942 74.1183 55.7673 74.0267C55.9482 73.9275 56.0984 73.7966 56.2176 73.634C56.3448 73.4638 56.4372 73.2657 56.4948 73.0399C56.5603 72.8142 56.5946 72.5724 56.5979 72.3146C56.6048 71.7834 56.5325 71.3254 56.3812 70.9406C56.2377 70.5559 56.0624 70.2138 55.8553 69.9142C55.6561 69.607 55.4487 69.3269 55.2332 69.0741C55.0255 68.8214 54.8647 68.5654 54.7509 68.3061ZM66.1016 73.8549C65.6094 73.8486 65.2019 73.6441 64.8789 73.2415C64.5637 72.8389 64.4113 72.2354 64.4217 71.4307C64.4285 70.8995 64.5426 70.2252 64.7641 69.4076C64.9935 68.5824 65.3805 67.6537 65.925 66.6216L66.3571 66.7443C66.3076 66.9468 66.2259 67.2231 66.112 67.5733C66.0059 67.9235 65.8954 68.3166 65.7804 68.7527C65.6733 69.181 65.5777 69.633 65.4934 70.1085C65.4093 70.5762 65.3644 71.0288 65.3588 71.4662C65.3541 71.8334 65.3775 72.1345 65.4292 72.3696C65.481 72.5968 65.549 72.7774 65.6332 72.9113C65.7253 73.0375 65.8297 73.1248 65.9463 73.1731C66.0706 73.2216 66.2031 73.2468 66.3438 73.2486C66.5703 73.2515 66.786 73.1839 66.9909 73.0459C67.1959 72.9079 67.3896 72.7268 67.5722 72.5026C67.7627 72.2706 67.9379 72.0151 68.0977 71.7358C68.2655 71.4489 68.4137 71.1617 68.5424 70.8743C68.679 70.587 68.7996 70.3151 68.9045 70.0586C69.0095 69.7943 69.0944 69.5688 69.1593 69.3821L69.6148 69.5052C69.5259 69.7384 69.4208 70.0105 69.2996 70.3215C69.1863 70.6248 69.0534 70.9395 68.9007 71.2657C68.7559 71.592 68.5916 71.9102 68.4079 72.2203C68.2242 72.5305 68.0175 72.8091 67.7878 73.0562C67.5581 73.2954 67.3017 73.4914 67.0184 73.644C66.7431 73.7889 66.4375 73.8592 66.1016 73.8549ZM68.1403 62.9583C68.1368 63.2317 68.0286 63.4413 67.8158 63.587C67.6029 63.7327 67.3364 63.8035 67.0161 63.7994C66.852 63.7973 66.6961 63.7719 66.5483 63.7231C66.4084 63.6666 66.2842 63.5986 66.1759 63.5191C66.0754 63.4318 65.9947 63.3331 65.9336 63.2229C65.8804 63.1051 65.8546 62.9836 65.8562 62.8586C65.8596 62.593 65.9639 62.3795 66.1692 62.2181C66.3822 62.0567 66.6254 61.9778 66.8988 61.9813C67.0941 61.9839 67.2695 62.0174 67.4249 62.0819C67.5805 62.1386 67.7123 62.2145 67.8205 62.3096C67.9286 62.4048 68.0093 62.5113 68.0625 62.6292C68.1157 62.7392 68.1417 62.849 68.1403 62.9583ZM67.5075 62.9502C67.5085 62.8721 67.4743 62.8013 67.4048 62.7379C67.3432 62.6668 67.246 62.6304 67.1132 62.6287C66.871 62.6256 66.7488 62.7139 66.7465 62.8935C66.7454 62.9795 66.7796 63.0541 66.8491 63.1175C66.9265 63.1732 67.0277 63.2019 67.1527 63.2035C67.2698 63.205 67.3561 63.1826 67.4114 63.1365C67.4746 63.0826 67.5066 63.0205 67.5075 62.9502ZM77.484 66.9108C77.8277 66.9152 78.12 66.9659 78.361 67.0627C78.6099 67.1519 78.8118 67.2443 78.9669 67.3401C79.0347 66.3174 79.1362 65.4124 79.2713 64.625C79.4066 63.8298 79.56 63.1403 79.7315 62.5565C79.911 61.9651 80.101 61.4714 80.3014 61.0755C80.5019 60.6718 80.7053 60.3501 80.9115 60.1106C81.1179 59.8632 81.3154 59.69 81.5042 59.5908C81.7009 59.484 81.8813 59.4316 82.0453 59.4337C82.3969 59.4382 82.6606 59.59 82.8364 59.8892C83.0201 60.1885 83.1082 60.6271 83.1008 61.2052C83.0968 61.5099 83.0567 61.9 82.9802 62.3756C82.9117 62.8435 82.8073 63.3696 82.667 63.9538C82.5345 64.5302 82.3703 65.1493 82.1743 65.8109C81.9861 66.4726 81.7666 67.1378 81.5158 67.8065C81.2728 68.4753 81.0064 69.136 80.7168 69.7886C80.4271 70.4411 80.1145 71.0544 79.779 71.6282C79.8045 72.0739 79.8468 72.4338 79.9057 72.7081C79.9725 72.9824 80.0557 73.1983 80.1552 73.3559C80.2549 73.5056 80.3708 73.6086 80.5029 73.665C80.6349 73.7214 80.783 73.7507 80.9471 73.7528C81.1736 73.7557 81.3933 73.6843 81.6061 73.5386C81.8191 73.3851 82.037 73.1417 82.2601 72.8086C82.4832 72.4756 82.7153 72.0449 82.9565 71.5167C83.1977 70.9807 83.46 70.3317 83.7433 69.5696L84.1988 69.6927C83.9645 70.2913 83.7304 70.8743 83.4965 71.4416C83.2628 72.0012 83.0102 72.5019 82.7389 72.9437C82.4755 73.3779 82.1858 73.7257 81.8699 73.9873C81.554 74.2489 81.1969 74.3771 80.7985 74.372C80.3063 74.3657 79.9254 74.2162 79.6557 73.9237C79.3861 73.6233 79.1882 73.2145 79.062 72.6972C78.6004 73.3554 78.1054 73.8803 77.5768 74.272C77.0562 74.656 76.5108 74.8443 75.9405 74.8369C75.6202 74.8328 75.3124 74.7703 75.0171 74.6493C74.7218 74.5205 74.4626 74.3296 74.2392 74.0767C74.016 73.816 73.8366 73.4895 73.701 73.0971C73.5655 72.6969 73.5013 72.2194 73.5085 71.6648C73.5159 71.0867 73.6131 70.5137 73.8001 69.9457C73.9949 69.3779 74.2632 68.8696 74.6049 68.4208C74.9546 67.9643 75.3695 67.5985 75.8496 67.3234C76.3377 67.0406 76.8825 66.9031 77.484 66.9108ZM76.3592 74.1743C76.7967 74.1799 77.2366 73.9942 77.679 73.617C78.1293 73.2321 78.5616 72.7259 78.976 72.0984C78.9338 71.7306 78.9076 71.3396 78.8973 70.9254C78.887 70.5112 78.8849 70.0697 78.8909 69.601C78.8947 69.3042 78.8985 69.0112 78.9022 68.7222C78.906 68.4253 78.9175 68.1403 78.9366 67.8671C78.898 67.8353 78.8399 67.7916 78.7625 67.7359C78.6929 67.6803 78.5999 67.6244 78.4834 67.5683C78.3748 67.5122 78.2464 67.4675 78.0984 67.4344C77.9583 67.3935 77.7984 67.3719 77.6187 67.3696C77.3531 67.3662 77.0514 67.4365 76.7136 67.5807C76.3758 67.7248 76.0524 67.9628 75.7434 68.2948C75.4423 68.6191 75.1868 69.0455 74.9769 69.5741C74.7669 70.1027 74.657 70.7498 74.6472 71.5153C74.6425 71.8825 74.6771 72.2267 74.7511 72.548C74.8329 72.8694 74.9465 73.1521 75.0918 73.3962C75.245 73.6326 75.4262 73.8224 75.6353 73.9658C75.8523 74.1014 76.0936 74.1709 76.3592 74.1743ZM82.6438 61.1993C82.6453 61.0822 82.6392 60.9493 82.6255 60.8006C82.6196 60.6521 82.5979 60.5151 82.5604 60.3896C82.5231 60.2563 82.4659 60.1462 82.3889 60.0593C82.3198 59.9646 82.2188 59.9164 82.086 59.9147C81.7657 59.9106 81.4655 60.1724 81.1852 60.7001C80.9128 61.2279 80.6729 61.9592 80.4656 62.8941C80.2583 63.8212 80.0919 64.9129 79.9664 66.1692C79.8408 67.4255 79.7687 68.7802 79.75 70.2332L79.7433 70.7605C80.0156 70.2405 80.2767 69.6852 80.5265 69.0946C80.7763 68.5041 81.0066 67.9093 81.2174 67.3104C81.4361 66.7116 81.6312 66.1164 81.8029 65.5248C81.9746 64.9332 82.1225 64.3726 82.2465 63.8429C82.3706 63.3054 82.4668 62.8105 82.5351 62.3582C82.6034 61.9059 82.6397 61.5196 82.6438 61.1993ZM91.0375 75.2303C90.6391 75.2252 90.2572 75.1499 89.8919 75.0046C89.5265 74.8593 89.205 74.6442 88.9274 74.3593C88.6577 74.0668 88.4436 73.7046 88.2851 73.2729C88.1266 72.8411 88.051 72.3362 88.0585 71.7581C88.0675 71.055 88.1771 70.4314 88.3872 69.8872C88.5975 69.3352 88.8612 68.8737 89.1785 68.5027C89.5037 68.1241 89.8629 67.8396 90.256 67.6493C90.6492 67.4512 91.0333 67.3546 91.4083 67.3594C91.8926 67.3656 92.2733 67.5307 92.5504 67.8546C92.8354 68.1786 92.9745 68.5945 92.968 69.1023C92.9624 69.5397 92.8752 69.9371 92.7066 70.2943C92.538 70.6437 92.3154 70.9456 92.0386 71.1999C91.7698 71.4464 91.4587 71.6378 91.1054 71.7739C90.7599 71.91 90.3996 71.9757 90.0246 71.9709C89.845 71.9686 89.6732 71.9586 89.5094 71.9408C89.3534 71.9154 89.2131 71.8902 89.0884 71.8651C89.1291 72.3501 89.2174 72.7692 89.3535 73.1225C89.4896 73.4759 89.6617 73.7672 89.8697 73.9964C90.0777 74.2257 90.3099 74.3967 90.5663 74.5093C90.8305 74.6221 91.1032 74.6803 91.3844 74.6839C91.7359 74.6885 92.0612 74.6067 92.3603 74.4386C92.6594 74.2706 92.9356 74.0515 93.1891 73.7813C93.4427 73.5033 93.6734 73.1859 93.8811 72.8292C94.0967 72.4725 94.2888 72.1117 94.4576 71.7466C94.6264 71.3738 94.7756 71.0124 94.9051 70.6625C95.0426 70.3048 95.1638 69.9899 95.2689 69.7178L95.7244 69.8409C95.6195 70.0974 95.4944 70.4083 95.3491 70.7736C95.2115 71.1391 95.0503 71.5238 94.8654 71.9277C94.6806 72.3238 94.4646 72.7234 94.2172 73.1265C93.9699 73.5218 93.6918 73.8776 93.3831 74.194C93.0744 74.5025 92.7234 74.7558 92.3302 74.9539C91.9449 75.1443 91.514 75.2364 91.0375 75.2303ZM91.4258 67.8167C91.1368 67.813 90.8504 67.9031 90.5668 68.0869C90.2911 68.2631 90.0418 68.5099 89.8189 68.8274C89.5961 69.1449 89.4116 69.5214 89.2653 69.9571C89.1269 70.3928 89.0545 70.8607 89.048 71.3606C89.1491 71.401 89.2892 71.438 89.4685 71.4715C89.6557 71.4974 89.8821 71.512 90.1477 71.5154C90.4289 71.519 90.707 71.464 90.9819 71.3504C91.2648 71.229 91.5169 71.0642 91.7383 70.8561C91.9677 70.6403 92.1507 70.3848 92.2873 70.0897C92.4317 69.7946 92.5062 69.4714 92.5107 69.1198C92.5129 68.948 92.4916 68.7836 92.4467 68.6268C92.4019 68.4699 92.3333 68.3323 92.2411 68.2139C92.1489 68.0956 92.0329 68.0003 91.8932 67.9282C91.7613 67.8562 91.6055 67.819 91.4258 67.8167ZM112.962 56.8779C113.181 56.8807 113.336 56.953 113.428 57.0948C113.528 57.2367 113.577 57.3936 113.574 57.5655C113.571 57.8076 113.478 58.076 113.294 58.3705C113.119 58.6574 112.881 58.9434 112.58 59.2286C112.28 59.5138 111.928 59.7867 111.527 60.0472C111.125 60.2998 110.696 60.5131 110.241 60.6869C109.966 61.4413 109.739 62.3408 109.562 63.3855C109.392 64.4224 109.298 65.6323 109.281 67.015C109.27 67.8508 109.29 68.6832 109.342 69.512C109.394 70.3331 109.45 71.1386 109.51 71.9285C109.578 72.7185 109.639 73.4928 109.691 74.2513C109.744 75.0099 109.766 75.7446 109.757 76.4555C109.749 77.1038 109.693 77.7672 109.591 78.4457C109.496 79.1242 109.347 79.7825 109.143 80.4205C108.94 81.0586 108.678 81.6569 108.359 82.2153C108.039 82.7815 107.653 83.2727 107.203 83.6888C106.752 84.105 106.232 84.4303 105.643 84.665C105.054 84.9074 104.388 85.0239 103.646 85.0143C102.982 85.0058 102.367 84.8885 101.799 84.6624C101.232 84.4363 100.736 84.1292 100.311 83.7409C99.8862 83.3526 99.5444 82.895 99.2855 82.3682C99.0265 81.8492 98.8735 81.2925 98.8264 80.6981L99.6028 80.4737C99.6429 81.0055 99.7613 81.5149 99.9582 82.0018C100.163 82.4967 100.439 82.9299 100.785 83.3016C101.132 83.6811 101.546 83.9833 102.028 84.2083C102.509 84.4332 103.051 84.5496 103.652 84.5573C104.238 84.5649 104.763 84.4896 105.226 84.3314C105.696 84.1812 106.113 83.9717 106.476 83.7029C106.839 83.4341 107.148 83.1139 107.402 82.7421C107.665 82.3783 107.881 81.9865 108.05 81.5667C108.22 81.1548 108.346 80.7228 108.43 80.2707C108.514 79.8265 108.559 79.3895 108.564 78.9599C108.577 78.0068 108.538 77.0648 108.448 76.1339C108.359 75.203 108.257 74.2797 108.144 73.3642C108.031 72.4486 107.929 71.5409 107.839 70.6413C107.749 69.7338 107.71 68.823 107.722 67.9091C107.74 66.542 107.901 65.2744 108.205 64.1063C108.509 62.9305 108.882 61.8844 109.323 60.9681C108.124 61.2887 107.057 61.6148 106.123 61.9466C105.197 62.2785 104.414 62.6825 103.775 63.1587C103.136 63.6349 102.648 64.2107 102.311 64.8861C101.974 65.5615 101.8 66.3992 101.787 67.3991C101.779 68.0084 101.842 68.5444 101.977 69.0072C102.112 69.4699 102.29 69.8745 102.512 70.2212C102.742 70.5601 103 70.8486 103.286 71.0867C103.58 71.317 103.875 71.5083 104.17 71.6606C104.465 71.8128 104.752 71.9298 105.032 72.0115C105.313 72.0933 105.554 72.155 105.757 72.1966L105.671 72.4885C105.015 72.4488 104.364 72.3077 103.719 72.065C103.074 71.8145 102.496 71.4672 101.986 71.0231C101.484 70.5791 101.077 70.0386 100.765 69.4018C100.461 68.7572 100.314 68.0169 100.325 67.1811C100.336 66.2671 100.526 65.4648 100.895 64.7741C101.271 64.0836 101.818 63.4773 102.535 62.9552C103.261 62.4333 104.157 61.9838 105.225 61.6069C106.292 61.2221 107.527 60.8786 108.93 60.5763C109.047 60.5544 109.161 60.5285 109.271 60.4987C109.388 60.4689 109.506 60.4353 109.624 60.3977C109.912 59.8467 110.211 59.3544 110.521 58.9209C110.84 58.4796 111.145 58.1085 111.438 57.8076C111.739 57.5067 112.019 57.2759 112.279 57.1152C112.547 56.9546 112.775 56.8754 112.962 56.8779ZM112.956 57.3349C112.8 57.3328 112.623 57.3853 112.427 57.4921C112.23 57.5912 112.021 57.7525 111.799 57.9763C111.578 58.1922 111.355 58.4745 111.132 58.8232C110.909 59.172 110.697 59.5872 110.495 60.0691C110.912 59.8791 111.281 59.6729 111.605 59.4505C111.928 59.2202 112.196 58.9932 112.41 58.7694C112.632 58.5378 112.799 58.3173 112.911 58.1078C113.031 57.8984 113.092 57.7155 113.094 57.5593C113.094 57.5124 113.087 57.4655 113.072 57.4184C113.065 57.3636 113.026 57.3358 112.956 57.3349ZM120.275 74.7155C120.713 74.7212 121.133 74.5664 121.535 74.2512C121.946 73.9362 122.268 73.4754 122.502 72.869L122.409 72.8678C121.924 72.8616 121.476 72.7738 121.064 72.6044C120.66 72.4352 120.308 72.204 120.007 71.9111C119.714 71.6104 119.484 71.2559 119.317 70.8474C119.151 70.4312 119.071 69.977 119.077 69.4849C119.08 69.2114 119.119 68.9346 119.193 68.6543C119.275 68.374 119.395 68.1256 119.554 67.9088C119.713 67.6843 119.919 67.5033 120.171 67.3659C120.423 67.2285 120.72 67.1621 121.064 67.1665C121.345 67.1701 121.622 67.2322 121.894 67.3529C122.166 67.4658 122.409 67.6604 122.625 67.9366C122.84 68.2128 123.011 68.5861 123.138 69.0566C123.272 69.5193 123.335 70.1061 123.326 70.8169C123.322 71.0826 123.307 71.348 123.28 71.6133C123.254 71.8708 123.207 72.1241 123.142 72.3733C123.447 72.3225 123.718 72.2284 123.954 72.0908C124.198 71.9533 124.411 71.788 124.593 71.595C124.783 71.3943 124.95 71.1699 125.094 70.9217C125.238 70.6657 125.37 70.394 125.491 70.1065L125.947 70.2295C125.777 70.6727 125.581 71.0491 125.358 71.3587C125.143 71.6685 124.909 71.9272 124.657 72.1349C124.412 72.3428 124.152 72.5035 123.877 72.6172C123.61 72.7231 123.332 72.7937 123.042 72.8291C122.928 73.2105 122.779 73.568 122.595 73.9016C122.411 74.2352 122.188 74.5253 121.927 74.7719C121.666 75.0186 121.363 75.2139 121.017 75.358C120.68 75.4942 120.3 75.5597 119.878 75.5543C119.526 75.5497 119.172 75.4749 118.814 75.3296C118.465 75.1767 118.147 74.9499 117.862 74.6494C117.585 74.3411 117.359 73.9592 117.185 73.5038C117.019 73.0407 116.94 72.4928 116.949 71.86C116.954 71.446 117.006 71.0404 117.105 70.6432C117.212 70.2461 117.353 69.8729 117.529 69.5236C117.714 69.1665 117.929 68.8372 118.175 68.5357C118.421 68.2263 118.686 67.9602 118.971 67.7373L119.143 68.0325C118.961 68.1942 118.786 68.3951 118.619 68.6352C118.452 68.8752 118.3 69.1428 118.163 69.438C118.027 69.7253 117.917 70.0325 117.835 70.3596C117.753 70.6789 117.71 70.9987 117.706 71.3189C117.697 71.9517 117.769 72.4839 117.919 72.9156C118.078 73.3473 118.281 73.6976 118.527 73.9664C118.774 74.2275 119.053 74.4186 119.364 74.5397C119.675 74.6531 119.979 74.7117 120.275 74.7155ZM121.035 67.6232C120.824 67.6205 120.628 67.6648 120.447 67.7562C120.266 67.8399 120.108 67.9589 119.974 68.1135C119.839 68.268 119.731 68.4541 119.65 68.6719C119.569 68.8896 119.527 69.1312 119.523 69.3968C119.518 69.8577 119.59 70.2728 119.742 70.6419C119.893 71.0111 120.1 71.3263 120.363 71.5875C120.633 71.8488 120.946 72.0521 121.304 72.1973C121.662 72.3347 122.047 72.4061 122.461 72.4114L122.684 72.4143C122.75 72.1729 122.796 71.9196 122.823 71.6543C122.85 71.389 122.865 71.1001 122.869 70.7876C122.861 70.1859 122.805 69.6852 122.701 69.2853C122.605 68.8778 122.476 68.5519 122.315 68.3077C122.154 68.0634 121.961 67.889 121.736 67.7845C121.518 67.6802 121.285 67.6264 121.035 67.6232ZM134.504 61.5497C134.497 62.1044 134.387 62.7163 134.175 63.3855C133.972 64.047 133.705 64.7546 133.375 65.5082C133.052 66.2619 132.687 67.0464 132.278 67.8615C131.877 68.6767 131.479 69.5115 131.085 70.3659C131.031 70.9434 130.973 71.4895 130.912 72.0044C130.858 72.5194 130.805 72.9953 130.753 73.4322C130.874 73.1603 131.011 72.8456 131.164 72.4882C131.325 72.123 131.501 71.7503 131.694 71.3699C131.886 70.9895 132.094 70.6172 132.317 70.2528C132.549 69.8808 132.791 69.5518 133.045 69.266C133.307 68.9725 133.579 68.7377 133.863 68.5616C134.154 68.3857 134.46 68.2997 134.78 68.3039C134.999 68.3067 135.205 68.3562 135.399 68.4525C135.601 68.5488 135.775 68.68 135.922 68.8459C136.068 69.0041 136.183 69.1892 136.266 69.4012C136.349 69.6132 136.39 69.8364 136.386 70.0707C136.381 70.4613 136.287 70.8078 136.104 71.1102C135.92 71.4047 135.686 71.6595 135.402 71.8746C135.126 72.0899 134.815 72.2695 134.469 72.4135C134.124 72.5575 133.786 72.6703 133.457 72.7521C133.487 72.9009 133.551 73.0775 133.65 73.2819C133.749 73.4863 133.879 73.6833 134.041 73.8729C134.21 74.0548 134.411 74.2137 134.644 74.3495C134.877 74.4775 135.137 74.5433 135.427 74.5471C136.036 74.5549 136.615 74.2068 137.163 73.5029C137.711 72.7911 138.26 71.7161 138.81 70.2777L139.265 70.4008C138.998 71.1005 138.725 71.7455 138.443 72.3357C138.163 72.918 137.859 73.422 137.533 73.8475C137.215 74.2732 136.871 74.6047 136.501 74.8421C136.131 75.0796 135.727 75.1955 135.289 75.1899C135.117 75.1877 134.919 75.1617 134.693 75.1119C134.475 75.0622 134.245 74.9616 134.005 74.8101C133.773 74.6508 133.541 74.4291 133.31 74.1448C133.08 73.8606 132.87 73.4789 132.681 72.9999C132.658 72.9527 132.635 72.8938 132.613 72.8232C132.598 72.7527 132.591 72.6979 132.591 72.6589C132.593 72.5105 132.63 72.4094 132.701 72.3556C132.772 72.294 132.858 72.2521 132.96 72.23C133.07 72.208 133.187 72.1938 133.312 72.1876C133.437 72.1736 133.559 72.1439 133.677 72.0986C134.258 71.8795 134.688 71.5607 134.966 71.1424C135.253 70.7164 135.4 70.2339 135.407 69.6948C135.411 69.3511 135.34 69.1119 135.193 68.9772C135.047 68.8347 134.876 68.7622 134.681 68.7596C134.524 68.7576 134.368 68.7986 134.21 68.8825C134.053 68.9586 133.911 69.0545 133.785 69.17C133.46 69.4862 133.155 69.8573 132.868 70.2833C132.589 70.7017 132.329 71.1398 132.089 71.5977C131.857 72.0478 131.644 72.4943 131.451 72.9372C131.265 73.3724 131.104 73.7649 130.967 74.1147C130.837 74.4568 130.736 74.7368 130.663 74.9546C130.598 75.1725 130.565 75.2815 130.565 75.2815L130.109 75.2053C130.102 75.1193 130.1 75.0138 130.101 74.8888C130.095 74.7793 130.093 74.6504 130.095 74.5019C130.097 74.3535 130.099 74.1777 130.101 73.9746C130.107 73.5294 130.122 72.9826 130.146 72.3344C130.17 71.6785 130.207 70.9484 130.256 70.1443C130.313 69.3324 130.387 68.4544 130.478 67.5102C130.576 66.5661 130.698 65.5793 130.844 64.5498C130.964 63.7075 131.114 62.9985 131.293 62.4226C131.48 61.8468 131.685 61.3846 131.909 61.0359C132.132 60.6793 132.366 60.4245 132.61 60.2714C132.854 60.1183 133.101 60.0433 133.351 60.0465C133.554 60.0491 133.729 60.0904 133.877 60.1705C134.024 60.2505 134.144 60.3614 134.236 60.5032C134.328 60.6373 134.396 60.7944 134.441 60.9747C134.485 61.1549 134.506 61.3466 134.504 61.5497ZM133.462 60.5285C133.267 60.5259 133.086 60.6369 132.919 60.8613C132.76 61.0859 132.611 61.3965 132.473 61.7932C132.335 62.1899 132.204 62.657 132.08 63.1945C131.964 63.7243 131.855 64.3011 131.753 64.9248C131.659 65.5408 131.569 66.1882 131.482 66.8668C131.395 67.5376 131.316 68.2085 131.245 68.8795C131.438 68.4757 131.643 68.0526 131.859 67.61C132.076 67.1674 132.285 66.717 132.486 66.2586C132.695 65.8003 132.892 65.3496 133.078 64.9067C133.271 64.456 133.437 64.0245 133.575 63.6122C133.721 63.2 133.835 62.8186 133.918 62.4681C134.008 62.1176 134.055 61.8096 134.058 61.544C134.06 61.4503 134.053 61.3447 134.039 61.2273C134.033 61.1101 134.007 61.0003 133.961 60.8982C133.924 60.7961 133.866 60.7094 133.789 60.6381C133.712 60.5668 133.603 60.5303 133.462 60.5285ZM146.139 75.9388C145.741 75.9337 145.359 75.8585 144.994 75.7131C144.628 75.5678 144.307 75.3527 144.029 75.0679C143.759 74.7753 143.545 74.4131 143.387 73.9814C143.228 73.5496 143.153 73.0447 143.16 72.4666C143.169 71.7636 143.279 71.1399 143.489 70.5957C143.699 70.0437 143.963 69.5822 144.28 69.2112C144.605 68.8326 144.965 68.5481 145.358 68.3578C145.751 68.1597 146.135 68.0631 146.51 68.0679C146.994 68.0742 147.375 68.2392 147.652 68.5631C147.937 68.8871 148.076 69.303 148.07 69.8108C148.064 70.2482 147.977 70.6456 147.808 71.0028C147.64 71.3523 147.417 71.6541 147.14 71.9084C146.872 72.1549 146.56 72.3463 146.207 72.4824C145.862 72.6186 145.501 72.6842 145.126 72.6794C144.947 72.6771 144.775 72.6671 144.611 72.6494C144.455 72.6239 144.315 72.5987 144.19 72.5736C144.231 73.0586 144.319 73.4777 144.455 73.8311C144.591 74.1844 144.763 74.4757 144.971 74.7049C145.179 74.9342 145.412 75.1052 145.668 75.2179C145.932 75.3306 146.205 75.3888 146.486 75.3924C146.838 75.397 147.163 75.3152 147.462 75.1472C147.761 74.9791 148.037 74.76 148.291 74.4898C148.544 74.2118 148.775 73.8944 148.983 73.5377C149.198 73.181 149.391 72.8202 149.559 72.4552C149.728 72.0823 149.877 71.7209 150.007 71.371C150.144 71.0133 150.266 70.6985 150.371 70.4264L150.826 70.5494C150.721 70.8059 150.596 71.1168 150.451 71.4822C150.313 71.8476 150.152 72.2323 149.967 72.6362C149.782 73.0323 149.566 73.4319 149.319 73.835C149.072 74.2303 148.794 74.5861 148.485 74.9025C148.176 75.211 147.825 75.4644 147.432 75.6624C147.047 75.8528 146.616 75.9449 146.139 75.9388ZM146.528 68.5252C146.238 68.5215 145.952 68.6116 145.669 68.7955C145.393 68.9716 145.144 69.2184 144.921 69.5359C144.698 69.8534 144.513 70.2299 144.367 70.6656C144.229 71.1013 144.156 71.5692 144.15 72.0692C144.251 72.1095 144.391 72.1465 144.57 72.18C144.757 72.2059 144.984 72.2205 145.249 72.2239C145.531 72.2276 145.809 72.1725 146.084 72.0589C146.366 71.9375 146.619 71.7728 146.84 71.5647C147.069 71.3488 147.252 71.0934 147.389 70.7982C147.533 70.5032 147.608 70.1799 147.612 69.8283C147.615 69.6565 147.593 69.4921 147.548 69.3353C147.504 69.1785 147.435 69.0408 147.343 68.9225C147.251 68.8041 147.135 68.7088 146.995 68.6367C146.863 68.5647 146.707 68.5275 146.528 68.5252Z" fill="#FBFBFB"/>
</svg>
