<svg width="857" height="857" viewBox="0 0 857 857" fill="none" xmlns="http://www.w3.org/2000/svg">
<circle cx="428.5" cy="428.5" r="428.5" fill="url(#paint0_radial)" fill-opacity="0.1"/>
<path d="M516.622 428.996C516.622 476.365 478.222 514.765 430.853 514.765C383.485 514.765 345.085 476.365 345.085 428.996C345.085 381.627 383.485 343.228 430.853 343.228C478.222 343.228 516.622 381.627 516.622 428.996Z" fill="url(#paint1_radial)"/>
<g filter="url(#filter0_d)">
<path fill-rule="evenodd" clip-rule="evenodd" d="M424.056 458.634C430.396 458.634 435.536 453.494 435.536 447.154V417.071C435.536 417.071 445.18 420.745 447.017 425.031C448.066 427.478 446.92 431.82 445.942 435.524C445.207 438.308 444.567 440.731 445.027 441.716C445.849 439.076 446.962 436.796 447.972 434.728C449.537 431.524 450.852 428.832 450.439 426.107C451.545 420.571 450.907 415.754 449.619 412.02C448.896 409.921 445.983 406.591 442.983 403.161C439.636 399.336 436.182 395.387 435.536 392.885H432.475L432.475 439.348C430.378 437.088 427.382 435.673 424.056 435.673C417.715 435.673 412.575 440.813 412.575 447.154C412.575 453.494 417.715 458.634 424.056 458.634ZM435.536 403.6C435.536 403.6 444.262 408.346 446.099 412.632C446.99 414.711 447.593 418.159 448.1 421.421C446.681 419.342 444.784 416.929 442.891 414.521C439.508 410.217 436.138 405.931 435.536 403.6Z" fill="url(#paint2_radial)"/>
</g>
<defs>
<filter id="filter0_d" x="408.825" y="392.885" width="45.9308" height="73.2485" filterUnits="userSpaceOnUse" color-interpolation-filters="sRGB">
<feFlood flood-opacity="0" result="BackgroundImageFix"/>
<feColorMatrix in="SourceAlpha" type="matrix" values="0 0 0 0 0 0 0 0 0 0 0 0 0 0 0 0 0 0 127 0"/>
<feOffset dy="3.74945"/>
<feGaussianBlur stdDeviation="1.87473"/>
<feColorMatrix type="matrix" values="0 0 0 0 0 0 0 0 0 0 0 0 0 0 0 0 0 0 0.25 0"/>
<feBlend mode="normal" in2="BackgroundImageFix" result="effect1_dropShadow"/>
<feBlend mode="normal" in="SourceGraphic" in2="effect1_dropShadow" result="shape"/>
</filter>
<radialGradient id="paint0_radial" cx="0" cy="0" r="1" gradientUnits="userSpaceOnUse" gradientTransform="translate(428.5 428.5) rotate(90) scale(428.5)">
<stop offset="0.328125" stop-color="#F2C94C"/>
<stop offset="1" stop-color="#F2C94C" stop-opacity="0"/>
</radialGradient>
<radialGradient id="paint1_radial" cx="0" cy="0" r="1" gradientUnits="userSpaceOnUse" gradientTransform="translate(430.853 428.996) rotate(90) scale(85.7687)">
<stop offset="0.390625" stop-color="#F7A223"/>
<stop offset="0.598958" stop-color="#F8E85E"/>
<stop offset="0.713542" stop-color="#EB8357"/>
<stop offset="0.84375" stop-color="#FC7373" stop-opacity="0.06"/>
</radialGradient>
<radialGradient id="paint2_radial" cx="0" cy="0" r="1" gradientUnits="userSpaceOnUse" gradientTransform="translate(431.791 425.76) rotate(90) scale(32.8748 19.2159)">
<stop stop-color="#534571"/>
<stop offset="1" stop-color="#342C46"/>
</radialGradient>
</defs>
</svg>
