<svg width="21" height="21" viewBox="0 0 21 21" fill="none" xmlns="http://www.w3.org/2000/svg">
<circle cx="10.5" cy="10.5" r="10.0227" fill="#C4C4C4" stroke="white" stroke-width="0.954545"/>
<path d="M5.36044 7.92111C5.29074 8.05277 5.15134 14.1507 5.36044 14.2871C5.46523 14.3555 7.9858 14.1607 10.524 14.1709C13.0507 14.1812 15.5951 14.3969 15.6994 14.2871C15.9085 14.067 15.7691 8.00243 15.6994 7.92111C15.6297 7.83979 12.8649 7.64229 12.6558 7.54936C12.4467 7.45643 12.1911 6.48062 11.9588 6.31798C11.7264 6.15534 9.17075 6.17858 8.98488 6.31798C8.79901 6.45738 8.40404 7.45642 8.26464 7.54936C8.12524 7.6423 5.43014 7.78945 5.36044 7.92111Z" fill="#535353" stroke="#535353" stroke-width="0.557607"/>
<path d="M12.0349 11.1273C12.0349 11.9486 11.3692 12.6143 10.548 12.6143C9.72676 12.6143 9.06103 11.9486 9.06103 11.1273C9.06103 10.3061 9.72676 9.64039 10.548 9.64039C11.3692 9.64039 12.0349 10.3061 12.0349 11.1273Z" fill="#535353" stroke="white" stroke-width="0.557607"/>
<path d="M6.31836 8.73428C6.31836 8.73428 6.8992 8.71105 7.13154 8.71105C7.36388 8.71105 7.97178 8.68408 7.97178 8.68408" stroke="white" stroke-width="0.232336" stroke-linecap="round"/>
<path d="M13.6058 6.82048C13.551 6.8583 13.405 7.15031 13.4283 7.17558C13.4515 7.20086 14.7526 7.34026 14.7915 7.31905C14.8305 7.29784 14.7758 6.96852 14.738 6.93963C14.7002 6.91073 13.6606 6.78266 13.6058 6.82048Z" fill="#535353"/>
</svg>
